/* XPM */
static char *f66f0ea006b349b1b722772c417c307brPnMviRJNfezDMQk[] = {
/* columns rows colors chars-per-pixel */
"50 50 227 2 ",
"   c #000000",
".  c #0C0401",
"X  c #0B0906",
"o  c #0C0C0C",
"O  c #130601",
"+  c #140B04",
"@  c #140D0A",
"#  c #15120E",
"$  c #1C120B",
"%  c #0F1013",
"&  c #191817",
"*  c #3F0D0E",
"=  c #271507",
"-  c #25150B",
";  c #2A160B",
":  c #2D190B",
">  c #351D0C",
",  c #3A1E0D",
"<  c #251A14",
"1  c #2D1D13",
"2  c #261E19",
"3  c #351E11",
"4  c #3C210E",
"5  c #2A231E",
"6  c #342214",
"7  c #3C2213",
"8  c #37281B",
"9  c #242524",
"0  c #272926",
"q  c #2B2D2A",
"w  c #3A2528",
"e  c #2F312E",
"r  c #333432",
"t  c #393A38",
"y  c #450F0F",
"u  c #4A110F",
"i  c #431010",
"p  c #4D1313",
"a  c #531615",
"s  c #591716",
"d  c #5A1817",
"f  c #531A1A",
"g  c #5C1B1B",
"h  c #641D1C",
"j  c #6A1E1D",
"k  c #721E1F",
"l  c #4B250D",
"z  c #522A0D",
"x  c #422512",
"c  c #4D2B15",
"v  c #482C1B",
"b  c #542D14",
"n  c #59251B",
"m  c #473415",
"M  c #4A3417",
"N  c #4C351B",
"B  c #4C391A",
"V  c #51331A",
"C  c #5C341C",
"Z  c #6A201F",
"A  c #72201F",
"S  c #62351A",
"D  c #66351A",
"F  c #75391D",
"G  c #6C1F20",
"H  c #432C22",
"J  c #592424",
"K  c #5C2D2B",
"L  c #563229",
"P  c #483B37",
"I  c #533A36",
"U  c #5B3B36",
"Y  c #652323",
"T  c #6D2221",
"R  c #6C2927",
"E  c #632D2C",
"W  c #6A2B2A",
"Q  c #742424",
"!  c #792626",
"~  c #732827",
"^  c #7B2827",
"/  c #7A2728",
"(  c #742A2A",
")  c #7C292A",
"_  c #653728",
"`  c #733E22",
"'  c #7E3B20",
"]  c #653331",
"[  c #6C3433",
"{  c #693E3C",
"}  c #733433",
"|  c #7C3232",
" . c #5D432B",
".. c #48493D",
"X. c #53453A",
"o. c #5C413D",
"O. c #66462C",
"+. c #7B4729",
"@. c #67423E",
"#. c #77413D",
"$. c #7D5739",
"%. c #4D3E43",
"&. c #434444",
"*. c #484946",
"=. c #4B4B4B",
"-. c #554B44",
";. c #544B47",
":. c #4E534D",
">. c #53554D",
",. c #5B544B",
"<. c #58574B",
"1. c #545453",
"2. c #5A5654",
"3. c #555B54",
"4. c #595C55",
"5. c #565C59",
"6. c #5C5D5A",
"7. c #6A4946",
"8. c #764A48",
"9. c #665749",
"0. c #665853",
"q. c #755754",
"w. c #586159",
"e. c #5D625B",
"r. c #63645C",
"t. c #69655A",
"y. c #77675E",
"u. c #605E60",
"i. c #5C6662",
"p. c #636563",
"a. c #656B63",
"s. c #686967",
"d. c #6A6C64",
"f. c #6D6D6B",
"g. c #756B67",
"h. c #6C7066",
"j. c #6E736B",
"k. c #777369",
"l. c #72746D",
"z. c #74796D",
"x. c #7A7B6F",
"c. c #6D7371",
"v. c #6B7776",
"b. c #747672",
"n. c #797773",
"m. c #757A72",
"M. c #7A7C74",
"N. c #787679",
"B. c #747C79",
"V. c #7B7C7A",
"C. c #812626",
"Z. c #832C2C",
"A. c #8A2E2D",
"S. c #902F2E",
"D. c #842F30",
"F. c #843232",
"G. c #8C3333",
"H. c #8B3838",
"J. c #923434",
"K. c #973837",
"L. c #943A3A",
"P. c #9B3B3B",
"I. c #A33E3E",
"U. c #834C29",
"Y. c #8B4A29",
"T. c #86572F",
"R. c #8C522C",
"E. c #995A29",
"W. c #914736",
"Q. c #8B5632",
"!. c #865834",
"~. c #955C32",
"^. c #985A31",
"/. c #AB5E31",
"(. c #9F612A",
"). c #946236",
"_. c #996035",
"`. c #A2642E",
"'. c #A56436",
"]. c #AB6B36",
"[. c #AF6B34",
"{. c #AE6A3D",
"}. c #B66933",
"|. c #B36D3C",
" X c #BA6C3C",
".X c #B5723D",
"XX c #BB743E",
"oX c #904F4F",
"OX c #A74342",
"+X c #B44949",
"@X c #906851",
"#X c #AA6E42",
"$X c #B16E40",
"%X c #B57844",
"&X c #BC7943",
"*X c #917C7C",
"=X c #C37443",
"-X c #C07B41",
";X c #7C8176",
":X c #778178",
">X c #7D827B",
",X c #808277",
"<X c #82847C",
"1X c #888A7E",
"2X c #827E81",
"3X c #798583",
"4X c #828482",
"5X c #858A84",
"6X c #8A8C88",
"7X c #918E91",
"8X c #939393",
"9X c #9C9C9C",
"0X c #AC9293",
"qX c #B59DA2",
"wX c #A7A6A6",
"eX c #BBA1A1",
"rX c #AEAEB1",
"tX c #B4B4B3",
"yX c #BDBCBC",
"uX c #C1A6A6",
"iX c #C4A9A9",
"pX c #BCBCC1",
"aX c #C7CACC",
"sX c #CFD3D3",
"dX c #D5D9D9",
"fX c #DDE1E1",
"gX c #E5EAE9",
/* pixels */
"~ T h h Z.T Q Q Q ! / / Q / ) ) / / / C.) ! T C.h s j h h Z Z.Q Q ^ ^ ^ ^ ^ ) / Q T G Q Z.h h T T Q ",
"~ Q T Y A.Q Q Q / / / Q T Q ) / ) / ) / ) W [ } J W [ W Q Z ) Q T Q / ! / / / / Q T h G Z.d T T Q / ",
") / ~ T A.h h T ! / / / Q ~ / ) / ) / Q 8.1X*X,X,X*X:XV.q.~ Z.A h Q Q / ! | D.) Q Q G Q ^ Z ^ ~ ( ) ",
"| F.) ~ S.Q G Q ( ) / / / / / ) / / ) T t.;X:X,X,XM.h.j.t.( G.^ Q Q ) / ) L.P.F.Q Q Q ! A.T D.Z.) D.",
"H.G.| G.A.h Q / ~ / / / / ! ! Q ! / Q Q 0.N.z.m.m.m.r.s.0.K.G.h Q ) ) ! ) | ( W Q Q h j S.^ ) H.H.H.",
"L.G.J.K.T h G Q ~ / / Q Q Q Q Q T Q j k { m.z.x.M.M.s.a.7.S.j j Q / ) ) Y J J Y Q Q h h Z.J.Z.F.G.L.",
"L.P.K.Q h h T / / / / G T S.K.K.P.A.W E I f.n.n.m.m.l.l.=.L Y Q ! / ) / Q g h Q / Q Q h h A.K.J.L.L.",
"L.) d h T Q Q / / / ! T 7.@XL.! D.oX*Xb.1.6.z.f.l.m.N.a.e.5XM.q.} Q ( 8.[ Q Q ) / Q Q Q h a Q G.J.K.",
"f u a h Q / / / / Q T 8.>Xm.o.L d.v.k.h.4.:.M.v.m.z.M.r.h.m.j.m.k.@.y.6X*X] ! ) Q / ! Q j h s p p s ",
"g d T Q / ^ / Q Q Q 8.N.v.z.a.e.>Xm.x.x.a.3.>X3X>XV.:Xp.m.m.s.l.d.e.6X<X>Xd.[ Q Q / ! / Q Q j d a s ",
"T Q Q Q ) ) ) ) T U B.v.z.z.;Xe.w.;X;Xh.<...1.6.6.6.3.=.s.z.M.l.4.x.1X<X<X<Xt.Q Q / Q / ) ^ Q T h j ",
") ! ) ) ^ ) ) Q ! Y 9.m.z.z.h.;Xr.t.9.8 - - O           & t e.e.h.1X,XM.<Xn.oXG.Q T T / ^ / / Q ! ! ",
") ) T Q / ) / Q T j L 5.m.j.:Xz.9.v 8 4 : ; O .             o r m.>X;X<Xf.<.( G.G.T Q ! ) ! / / ) T ",
"L.L.Z./ / / ) ) Q R g.a.i.m.z.@.D O.L x > : O .                 9 e.l.a.r.b.-.T J.Z.Q Q / ! ) Q Q ^ ",
"Q T C.S.T Q / ) ! 8.V.:X5.3.X.O.Q.$.V x > : O                     & *.e.V.<Xj.L Q A.j Z Q / / G Q G.",
"f p a Q ) Q Q ^ } f.M.m.B.X. .!.'.T.C c , > O                       9 l.>X<X4X0.Q Z.Q Q / / G Q ! d ",
"Y h h G Z.j Q / X.i.:X;Xy.` `./.'.Q.S b , : O                         &.:X>Xl.w.{ S.Q Q Q ! h Q j f ",
"Q T G Q Z.T Q | k.w.w.h.$.R.-X}.|.Q.S c x ; O .                       & e.s.r.e.7.J.h h Q / Q ^ Q h ",
"( / / D.D.j T #.x.m.;X9.$.].=X}. XR.S c , = +                           e a.m.z.d.) h j Q ^ j Q ^ Q ",
"F.D.D.L.) j / @Xc.c.;X9.(.,X1X}.|.R.b x , ; O                           & j.l.h.b.8.k ! ! ! Q Q A.D.",
"P.P.P.G.g G Z.g.j.v.j. .).%X.X].|.Q.V x 3 ; O                           X >.l.j.z.7.j ! Q / Q h Q J.",
"W Q h h Q T } t.a.s.0.M _.].].`..XQ.C v 8 6 - .                           e r.e.w.7.( } / ^ / Q h d ",
"p p g Q W 0.z.:XN.5Xd.m _.}.XX]. X^.S c 6 5 2 X                           q M.:X>X,Xk.0.] ^ / ^ Q g ",
"( Q / ^ R z.N.j.s.j.t.B _.}.XX].|.R.S v ; 2 5 #                           e M.m.>XM.z.p.E ^ / / ) / ",
"/ G T ! T n.N.;X4XV.r.B ~.=X&X].|.R.C v : 5 & #                           r >Xz.;XM.>Xp.K ^ / / ) ! ",
"Q Q Z.Z.W s.x.:XV.V.r.B ^.=X&X].{.U.b 7 5 & # X                           r 1Xc.x.M.N.0.] / Q Q Q T ",
"F.K.I.I.| r.a.a.s.N.r.B ^.=X-X].'.U.b 7 1 2 # X                           e 5Xj.h.j.s.4.K ( / j j Q ",
"L.^ Q Q ( <.<.:.1.2.:.M ~.=X=X`.'.!.b 6 - $ # +                           0 4.1.:.>.>.=.K Q Q T Q G.",
"g * * y y g W <.b.b.2.M E.=X.X(.#XR.a 4 - + < @                           0 a.l.r.X.W E Y Q G Q A.Z.",
"p p a a f p G t.8X6Xd.m ~.-XXX(.$XY.l 7 : 1 - .                           e 6X:Xj.o.T n J G j Z.Z.a ",
"n h g g h s s <.4X2Xt.m ~.=X.X(.|.R.z , 6 : $ .                           r 4Xj.b.I f n T Q Q A.j u ",
"Y h Z Z Z T j ,.N.4Xt.m ^.-XXX`.[.R.z x > = + .                           e >Xa.a.I g Q G G C.! s d ",
"T T T Q T T Y ,.N.N.r.M _.XXXX[. XQ.b x 4 ; O                             e m.e.e.U Q Q j h ! ! d T ",
"( T T Q Q ! Q <.s.0.:.B _.-X}.(.{.U.z x , = +                             q s.e.w.U k ! Q j C.! G T ",
") Q ( ) ) { 8.4.6.2...M ^.XX.X'.'.U.z 7 6 = .                             9 4.4.4.X.@.@.( Q C.Z./ ( ",
"F.D.G.G.| j.5X1X6X7Xd.M ~.XX%X'.^.+.c 7 6 = .                             e 5X:X;X:X1Xa.K j A A.) ) ",
"F.F.H.L.} f.m.z.x.m.t.m ~.&X{.E.Y.` b 7 6 - .                             r m.w.j.>X,Xr.K j h Z.J.Z.",
"H.F.G.L.H.k.:X;XM.k.e.m ^. X X~.W.' l , 6 ; .                             r 5Xa.m.<X,Xr.K j h h G.P.",
"OXI.OX+XL.b.N.z.M.g.r.M ^.'.].Y.Y.` l > : +                               e 6XM.:Xx.z.r.[ A A Z d ) ",
"J h ) ) J s.*X:Xb.l.4.V Q.E.(.F F D x 6 +                                 e >X:Xm.>Xb.6.] ^ Q Q h s ",
"j p u a J 0.s.0.3.3.-.V T.R.~.F F S i @                               X   0 3.e.e.r.2.*.E ^ ) ! T T ",
"/ G j Q Q ] [ :.v.v.2.N !.U.U.S _ E -         . X X o % % % 9 & 9 0 0 9 0 r p.l.p.o.W E ~ Q / ! / / ",
") / / / / Q Y 2.v.3Xs.N !.+.F S U ; . X o o o % & 9 9 q r t &.*.=.=.*.=.*.:.3Xm.c.@.) ~ / ! / / ^ ) ",
") Q ! ) ) Q n 2.v.v.t.V T.+.F L 5 O o % % & 9 r t *.5.u.p.f.B.V.N.N.b.N.b.i.>Xj.c.I n Y Q ) ! ) Q T ",
"~ Q Q / / / T 9.:Xz.y.V +.F +.7 o & & e &.1.u.s.N.2X7X8X9X9X9X9X9X9X9X9X8Xs.m.b.b.U G Q Q T Q Q G j ",
"F.Z.) T Q ^ Q 0.x.a.0.V $.O.v - 9 t 1.u.N.2X7X9XwXrXtXtXiXtXrXrXpXaXyXyXtXc.d.m.V.7.k / Q h G Z.A.Z.",
"G.J.G.T T ) T >.a.i.>.8 { H < r =.u.f.6X8XrXpXaXaXaXaXsXsXsXsXdXdXdXfXgXgX:Xi.b.B.U k ^ G h Z.P.K.A.",
"Q k A.Z.Q Q T I *.*.P 1 , H w %.7.*X2X7X0X0XqXqXeXuXiXiXuX0X0XuXiXuXiXiXiXq.P X.-.[ ! k T Z.A.! j G ",
"f p j A.T Z T Q Q T Q / Q ) Q / ( Q ) / / / T Z Q J.S.A.J.C.j k ! ! ! ! k G G / Q Q Q T / A.G a p a ",
"T h a Q Q h Q Q ) Q ! ) ) Q ) / / ! ) Q Q / h ! Z.j s a h A.Z.G Q ^ ) ) ^ Q Q ) / Q G T Z.! s d h h "
};
