/* XPM */
static char *_6eb5bc081ca4ea4e0d6f9ca78bc9638v76363s09aus84Sd[] = {
/* columns rows colors chars-per-pixel */
"50 50 233 2 ",
"   c #3F0D0E",
".  c #323234",
"X  c #440F0F",
"o  c #4A100F",
"O  c #4D1313",
"+  c #4F1D1E",
"@  c #531615",
"#  c #591717",
"$  c #531A1A",
"%  c #5C1B1A",
"&  c #641D1C",
"*  c #691E1E",
"=  c #711D1D",
"-  c #5A2C1B",
";  c #4B331E",
":  c #59391D",
">  c #6B201F",
",  c #652D1C",
"<  c #6D2D1F",
"1  c #64311B",
"2  c #69361B",
"3  c #6B321E",
"4  c #763A1D",
"5  c #6E1F20",
"6  c #5C2323",
"7  c #592725",
"8  c #4C3929",
"9  c #5C3C24",
"0  c #553A29",
"q  c #463D39",
"w  c #593937",
"e  c #652222",
"r  c #6D2221",
"t  c #682C23",
"y  c #642D2D",
"u  c #6C2C2B",
"i  c #742424",
"p  c #792626",
"a  c #772827",
"s  c #7A2728",
"d  c #752A2A",
"f  c #7C292A",
"g  c #6C3421",
"h  c #6D3C24",
"j  c #773527",
"k  c #743C24",
"l  c #7C3D24",
"z  c #743C29",
"x  c #6B3433",
"c  c #673B39",
"v  c #743635",
"b  c #75411F",
"n  c #554332",
"m  c #584838",
"M  c #644325",
"N  c #64452A",
"B  c #694529",
"V  c #67482C",
"C  c #7C432B",
"Z  c #7B4829",
"A  c #7C532B",
"S  c #6C4936",
"D  c #784935",
"F  c #7B5235",
"G  c #493E43",
"H  c #454D48",
"J  c #534542",
"K  c #554B43",
"L  c #594A46",
"P  c #4D534D",
"I  c #56564B",
"U  c #4C4D54",
"Y  c #595754",
"T  c #545A53",
"R  c #5B5D5B",
"E  c #654644",
"W  c #644B47",
"Q  c #774846",
"!  c #6B5746",
"~  c #63554D",
"^  c #74574A",
"/  c #635953",
"(  c #685956",
")  c #795C56",
"_  c #5B6456",
"`  c #54625D",
"'  c #5D625B",
"]  c #766144",
"[  c #63655B",
"{  c #686658",
"}  c #756454",
"|  c #73645B",
" . c #6F735E",
".. c #5E6562",
"X. c #5B6867",
"o. c #646B64",
"O. c #666866",
"+. c #6A6B64",
"@. c #6B6E69",
"#. c #756662",
"$. c #726E69",
"%. c #677064",
"&. c #6B7265",
"*. c #66726B",
"=. c #6C736C",
"-. c #73746C",
";. c #797668",
":. c #7A736D",
">. c #757A6E",
",. c #6F6F7A",
"<. c #6D7571",
"1. c #6A7775",
"2. c #6D7A74",
"3. c #747572",
"4. c #757B73",
"5. c #7A7C74",
"6. c #747B79",
"7. c #7B7D7A",
"8. c #812626",
"9. c #832C2C",
"0. c #8A2D2D",
"q. c #8B322C",
"w. c #842F30",
"e. c #843232",
"r. c #8C3332",
"t. c #8E3939",
"y. c #923434",
"u. c #983837",
"i. c #943A3A",
"p. c #9B3C3B",
"a. c #A23E3E",
"s. c #884626",
"d. c #83442A",
"f. c #8D4C2D",
"g. c #934D28",
"h. c #8A542B",
"j. c #96552B",
"k. c #99552D",
"l. c #8A4431",
"z. c #854932",
"x. c #8E4E33",
"c. c #964D32",
"v. c #875837",
"b. c #935334",
"n. c #9B5433",
"m. c #965932",
"M. c #9D5937",
"N. c #A2572C",
"B. c #A65935",
"V. c #A45C3A",
"C. c #B15D39",
"Z. c #9A663B",
"A. c #A5612D",
"S. c #AC672E",
"D. c #AC6434",
"F. c #AD6937",
"G. c #A76539",
"H. c #AA623B",
"J. c #B46C35",
"K. c #B2643A",
"L. c #BA6738",
"P. c #B46B3B",
"I. c #BB6C3C",
"U. c #B57035",
"Y. c #BB7237",
"T. c #BA773D",
"R. c #BC743C",
"E. c #C2753D",
"W. c #C2793D",
"Q. c #CA793F",
"!. c #D47F3B",
"~. c #8F504A",
"^. c #A74342",
"/. c #AC5545",
"(. c #996543",
"). c #A86644",
"_. c #AC6D44",
"`. c #B46C42",
"'. c #B56A47",
"]. c #BB6D42",
"[. c #B67144",
"{. c #BC7242",
"}. c #BC7A46",
"|. c #BB754A",
" X c #BB7C4A",
".X c #B3785E",
"XX c #81716C",
"oX c #817E77",
"OX c #A37D6B",
"+X c #C36E41",
"@X c #C37542",
"#X c #C57A44",
"$X c #CC7C44",
"%X c #C4764A",
"&X c #C57D4A",
"*X c #CB7E4C",
"=X c #D17D45",
"-X c #D47E4A",
";X c #CB7A50",
":X c #778377",
">X c #7D8076",
",X c #7C827B",
"<X c #D3813B",
"1X c #BB8146",
"2X c #BF8051",
"3X c #8E806D",
"4X c #82847B",
"5X c #868579",
"6X c #84897E",
"7X c #B6886F",
"8X c #CD8245",
"9X c #C8854A",
"0X c #CC824C",
"qX c #D18345",
"wX c #D58746",
"eX c #D2844B",
"rX c #D9844B",
"tX c #D48A4C",
"yX c #D98B4C",
"uX c #DC914C",
"iX c #C88351",
"pX c #D18451",
"aX c #D48C52",
"sX c #DB8C52",
"dX c #D79054",
"fX c #DB9155",
"gX c #E29355",
"hX c #C08C76",
"jX c #7B8282",
"kX c #858882",
"lX c #899086",
"zX c #97948C",
"xX c #A2928C",
/* pixels */
"d r & e 9.5 i i i i s s i p s s s p s 8.f p = 8.& # & & & > 9.i i p s s s s s s p i * i 8.* & r r i ",
"d i r e 0.i r i s f f i i i 9.f f s f f f r u v 7 t u u i & f p r i p p p s s p i 5 & 5 9.% r i i i ",
"d a i r 0.* & i i f f s i i f f f s s i v XXoXoXoX5X5.4X#.d 9.i & i i f p w.w.9.i i * i p * d d d d ",
"e.9.f d r.r * i d f s s i s f f p s s p E ,X4X4X4X4X;.$.&.x 0.p i s s s w.t.p.v i i i p 0.i w.f f e.",
"t.r.f r.0.* i p s s f s p p a i i s a p E 3.>.>.>.>.[ O.( i.r.& i f f p f v d u i i & * y.p w.r.r.t.",
"i.e.i.u.5 & r i i p s i a i i i i i 5 i u $.4.5.:X:X&.O.( r.* > i s s f e 6 7 e i i & & 8.y.f r.t.i.",
"p.p.u.i % * r i s f s e r r.p.i.p.r.r u y [ 3.5.;.4.$.3.Y 8 e a p s s s r % & i p i i > & 9.u.r.t.u.",
"i.d # & i i i f f s i i c ~.i.8.w.t.#.:.' T :.$.-.>.4.<.Y ,X5.) v i p Q c i p f p i i 5 & # p r.r.u.",
"$ o @ & i p p p f i i v :.6.L + ~ -.:X&._ H 3.3.3.4.4.*.X.:X*.:X-.E Q 4X4Xc p f i p i p * % # O @ # ",
"% # > i p f p p a r v :.3.>.=.[ ,X:X>.>.=.T 5.4XoXoX4.%.=.:X*.*.2.R 4XlX4X5.c p p p p f i i r # @ # ",
"i i i p p f p p i 6 @.6.-.3.>.%.` 6.>.;.{ m / | } } } ~ ( -.>.2.` O.6X5X4XkX$.u i p i p f f i r & > ",
"f p s f f 9.d a i e W @.4.>.=.:X_ [ } S M Z v.v.F (.m.v.Z S ! { [ 6X>X>X7.4X) e.i i 5 p f f p p a p ",
"f d i i i f f a i * t P =.>.=.>X{ 8 D x.B.V.V.M.k.].C.'.).(.D w | 6X>X4X4.R x 0.r.5 i i p p f f p i ",
"i.u.9.p p p s p i 5 ^ =.` 1.>.} 9 2 (.).B.L.]._.D.$XE.Y.].[.b.b.k ! &.<.` >.~ r r.0.i i p p f i i a ",
"i 5 9.0.r i p f p v 5.,X' T I 8 A b.).].I.%X&X|.P.yXqX8X#X9XM._.M.0 m T 2.,X5.w p 9.5 5 i p f * i r.",
"$ O @ i 9.i a p a ( 7.=.:XI ; F (.m.|.&X#X0X0X&X@XgXtXeX8XpXF.[.|.Z.0 } 4XjX4XO.d 0.r i f f 5 r p # ",
"e & & > 9.* i p x R <.6.oXm Z ).`.G.&X-XqXwXtX9X#XgXyXeXeXsXJ.&X*X`.(.N ;.oX3.o.c r.i i i p & i > @ ",
"i r r i 0.r p p ) X...3.) M G.P.}.J.8XeXqXyXyX9XW.fXtXqXqXeXY.8XeX#X[.v.S $.X.' / e.& & i p i s i > ",
"d s p 9.9.* i v $.6.6.+.S h.K.E.&XY.eXwXwXyXaX9XW.uXwXqXqXeXY.Q.eXQ.E._.V ~ 3.6.+.u & 5 i s r i p d ",
"e.e.e.i.p r i ~.<.<.4.} D Z.E.*X0XT.yXwXyXtXeX*XW.gXqXqX8XtXY.Q.qX$XE.[.v.} 3.<.<.^ i p p p i i r.9.",
"c.p.c.y.% r f ) *.*.-.! v.P.#X9X9XT.dXwXaXtX0X*X#XuX<X=X8XpXR.8XeX&X#X{.).^ $.<.3.( 5 p i p i & i i.",
"r i 5 % i i v ^ +.O.{ M Z.}.&X0XaX}.dXwXtX8X0X*XE.uXqXqXeXdXY.9XtX8X0X{._.B Y o.o./ d d a p p i & # ",
"O O % 5 a E $.6X,XlX7.M Y.pX8XyXaXW.fXyXwX8X0X0XW.uXyXyXyXfXY.9XyXqXeXpXR.B &.6X,XlXXX+.c p p f i & ",
"f i s f i ( 5.-.o.o.o.V @X*X8XtXtXT.fXyXqXtX0X9X8XuXyXyXtXaXT.tXyXqX8XeX$XA O.4.>X,X-.&.w s f f p i ",
"d 5 5 s 5 ) 6.6.4X:XO.V R.9XeXtX0XW.fXtXqXeX0X&XT.uXyXsXrXtXY.tXyXqXqX0XpXF &.4.5.6.5.-.w s a p p p ",
"i 5 9.9.i / 5.5.>X>Xo.N @X0XqXtXeXW.fXeX8X8XeX&XT.uXrXsXeXeXU.tXwXqXqX0XaXv.&.:X5.5.5.@.w p a i i r ",
"e.i.a.a.r./ O.$.*.>.*.N R.*X$XeXtXR.sXeX8XqX8X9XW.uXqXsXeXaXJ.tXeXQ.8X&XsXv.&.:X@.3.+.[ w i p > * i ",
"i.f s i s W Y Y I T P M R.0X8X8X0XT.fXqX$X*X*X%XR.uX8XrX8X9XU.tXeX$X$X0XaXA I _ Y R Y U w i i r i r.",
"%     X X 6 u L &.>.` M R.pX8XqX9XY.aX*X$X$X*X}.U.yX$X-XeXpXF.8X0X#X$X*XtXA I -.@.J y y 7 i r i 9.s ",
"O O @ @ @ X 5 Q lXlX=.V @X0X8X8X9XJ.pXqX#X$X8X&XU.yX=X$X*X0XS.8X$XQ.8X*XtXA =.4X3.Y e 6 & * * 9.0.# ",
"6 % & & & $ # E ,X4X*.V @X0X8XqX0XR.tX8X8X$X*X&XR.qX$X*X*X0XJ.8X$X@X{.#X0Xh.$.5.6.Y + $ r p i 0.& o ",
"5 & & 5 & 5 5 E *.7.<.V @X*X8XqX*X{.aX8X$XqX$X8XE.<X$X2X&X*XP.<X$X.X7X7X2XA +.:.@.U % i * i 8.p # % ",
"5 r r i 5 e i E <.5.X.V }.*X$X$X*XR.pX8XQ.8X8X&XY.qX$X&X#XeXF.8XF./ zX3X3X] { { _ m r i & & p p % > ",
"d e r i i s s E o.( T N W.*X$X8X*XJ.tX0XQ.$X0X|.U.tX$X0X<XrXF.9XZ.n jX-.~.! _  .[ m i s i > 8.s r r ",
"f i d f w.v E W T T H N }.*X8X&XiXP.aXeXqX=XqXiXT.yX*X0X<XrXG.1X).kX' xX7Xw U R ` U c c d i 8.9.p d ",
"e.e.e.r.w.( 7.4XjXkX=.N @X*X#XQ.;X[.aXeX=X-XpX%XT.sX#X0X<XrXF.1Xv./ . q OX0 ,.jX6.6.:X*.w & i 0.p f ",
"e.e.t.t.9.( ,.:.5.>.*.N {.&X$X%X&XF.0XeX=X=XpX|.A.pX;X&X!.-XF.1XF *.*.' ] 8 *._ { ;.4X3.w * & 8.y.9.",
"t.r.t.i.u.#.7.oX>X&...N I.*X#X@X&XA.0XeX=X=X*X XA.eX%X&X$X*XM. XZ K >.{ ; 8 :X . .4X4X&.w & & & r.p.",
"c.a.^.^.a.#.7.3.>X&...V I.%XE.I.].N.*X$XQ.=X%X{.S.eX+X XE.;Xk.Y.m.g : g Z.N :X6X>X5.>.&.c i i > @ 9.",
"e e f f # ( jX7.5.>.' N '.%X].L.).j.%X+XE.+X@X`.A.qXI.].].|.j.P.P.|.|._.2XN X.,X5.,X5.O.w p i i & @ ",
"* O o @ & L o.O.Y Y m N _.[.H.K.H.h.%X+XP.{.+X'.N.$XC.K.P.`.g.G.A.G.A.j.G.B H ' ' O...U w s p i p r ",
"p > r i p y c J O.+._ 0 (./.B.B.V.s.|.L.C.P.C.H.k.E.N.B.V.F.s.B.j.j.j.s.G.M P +.O.K y 7 e i p s i p ",
"f p p f p i r W 3.4X-.M x.n.n.c.n.d.'.C.B.G.C.V.k.L.N.N.B.M.s.M.f.s.s.d.m.M 3.4X4./ d i s i f f p s ",
"d a p f s p % J -.=.&.0 z.f.f.c.f.Z /.B.k.n.B.b.c.C.g.n.b.b.4 b.s.4 k k h.N 2.:.-.K - > i p f f i i ",
"a i i p i p r J :X3.%.n l d.d.l.d.4 b.c.f.x.c.f.s.B.q.s.z.z.< d.q.4 C k Z 0 *.>.5.L * p p i i i * * ",
"e.9.p i p i p W 6.=.' 8 z z B q.k 1 x.l.l d.c.C C b.4 k C C 1 l Z 2 k h b : X.3.,X( i s i & > 9.e.9.",
"y.r.r.r p p > L @.o.T 8 h 4 B l g : z.l.k C d.k Z h.4 k z z 1 g h 3 h h 4 0 X.5.,X/ * f > & w.u.u.0.",
"* i 0.9.* p p w J J n 8 t < < t , - j j j g j 3 g q.j j g t - t t , 1 - , 7 G L W G i i > 9.0.p * > ",
"$ @ & 0.i & r i i r i p a i i i i i p i p i 5 5 i r.r.0.y.8.5 i p p p f i > r p i i i r p 0.= O @ @ ",
"r & @ p i & i i p a p 9.f p f f f p f i p p * a 9.* # # & 0.9.> i a f s f i i f p i r r 9.p # # & > "
};
