/* XPM */
static char *bb3eff5974634058c3faec3e5c968b7eEKMabEqFMfnOpaW4[] = {
/* columns rows colors chars-per-pixel */
"50 50 83 1 ",
"  c #3E1412",
". c #431615",
"X c #461816",
"o c #491917",
"O c #461A19",
"+ c #4D1C1A",
"@ c #531E1C",
"# c #4E211F",
"$ c #56201E",
"% c #59211F",
"& c #4D2221",
"* c #542423",
"= c #5D2422",
"- c #572827",
"; c #5B2826",
": c #5D2A29",
"> c #622623",
", c #662926",
"< c #692A27",
"1 c #652C2A",
"2 c #6C2C2A",
"3 c #712E2C",
"4 c #6D312E",
"5 c #70302E",
"6 c #71302E",
"7 c #70312F",
"8 c #72312F",
"9 c #74302D",
"0 c #77302D",
"q c #75322F",
"w c #7A322F",
"e c #6E3331",
"r c #723230",
"t c #743230",
"y c #743331",
"u c #773330",
"i c #703533",
"p c #773433",
"a c #763735",
"s c #7A3330",
"d c #783533",
"f c #7B3532",
"g c #7B3633",
"h c #7C3431",
"j c #7E3532",
"k c #7D3633",
"l c #783534",
"z c #7A3836",
"x c #7F3835",
"c c #7F3936",
"v c #7E3938",
"b c #7D3B39",
"n c #7F3A38",
"m c #7E3A39",
"M c #803734",
"N c #833836",
"B c #853936",
"V c #863A37",
"C c #803B39",
"Z c #833B38",
"A c #813C3A",
"S c #873C39",
"D c #873D3A",
"F c #833D3C",
"G c #853E3C",
"H c #883C39",
"J c #883D39",
"K c #893D39",
"L c #893F3D",
"P c #8A3F3C",
"I c #85413F",
"U c #88413F",
"Y c #8D413D",
"T c #8C413E",
"R c #90423F",
"E c #874240",
"W c #894442",
"Q c #8D4441",
"! c #8F4845",
"~ c #934542",
"^ c #944946",
"/ c #944B48",
"( c #9C4C48",
/* pixels */
"1,=>q<222233<333333q32<q@@==;>q223333333<<><w%=,<<",
"2<<;s<,<2332<23333333,22=,<<<>32<1323333<,=,q$,112",
"y22,s>>,3333<2qq38323223,23431j2>2233qjy2<,<q>4433",
"ala2M,,<2833233332383,>33slldyj2<3238IWa22<2w,dqyw",
"FvdMs><2233233222223r<,3NjAHHSj>2333eae1<<>>j3dcAA",
"GCSV,=,<2332212222,<22>;qTTTTV>><338;--;1<>%qMdCGT",
"QPH3=;,2332<<NPTQc,,222>@=<1,@=23333,*=<32<>%wHVST",
"S2=@,<233321dTNwMSj<<2r2>$oX@>183233222332<,=$3wNP",
"+O@=<33382<wq=@@+=w3=<3322,>228832222233<322,%@oX$",
"$$>,23322,<3=+$$$$>8>,28883333q32323333333232,=@+$",
",<<23383<><2==>,,>>w2,2328283332,3VHPPHw2223332>=>",
"r33383322,22>,,<<<,q<><44482332,3HHVVVTS3,,3332322",
"r3<<2q32,>,322288y8j>=,4yzvy32,2Mww>>>3jw2<232333<",
"SSd22333<,2w3qlllddN,>1yzSQI1,,qk2+oXXo>Mw<22332<3",
"22yj<<333<>3jdCAAVS8>14ezbAi,<3j3@+@@@@@3w,,233,2j",
"++@<q2232,==sVSSPHw%>11::411>>2w,@@>=>>=,j,<33,,2$",
"=%$>q>23222%$2ww4=$,<22<,>>2,>,w,>,,,<<,2M<<22><=@",
"1,,2w,23832>$$ooo+$,233288332<<q22122224yl=>,3,3,>",
"384wy>243dq22,$%=>,<32332322<,>3w4syalzlMq=,23,232",
"czcKq,2cQ^E342<23233333328322>><clazvAANV2<2232<ll",
"TTYN=,yTTAy433233q332322<3332<,$2VMNHPPP3><2222%2N",
"11>$,28dlr1148833223MVVV2<<233>>@2jSPEM,$,<2233<=$",
"+@%,231441;148282<<3w30Ms<2,23<<>@@$>=@@><3333382=",
"1<<424>--#;8T!z42>23=@@=s2>,22222>+O+@@><238383332",
"1<<22<1=$%18vva42,32@===32>233323<>==,<28yvF833332",
"23qw2<22,31::1:22>321,,,33,<22333222232yG//Wd22<<,",
"cHRRVd82223$&#*12>33rrrrj3=,23222333323C~QGv422,,2",
"V3<<qNV2><32;;122>3slvckV2<<3232223333rjClye1,<,2j",
"@.  .=wq><<2222222>3VVHVw=,,33332333334ryee1:,,2sw",
"Xo+@oX,w2<32233322>@=22>=>33322332322311411;=>>wq@",
"*@$$$@%j3><23222232>@+o@2233232,<22,222-**&*,<2q>X",
">=>>>>,w<>22333223222>>,2332,<33djs2,22>**;>>,33@@",
"1,,,,,,M3,23223332<2<22q332,>3MVVVVw2<<2,,<<==32==",
"<,<<22yS,><222333232232333,>,ww3<<3Mw><22132<>33>,",
"r24raacV>=><22223338323232<,33>+Xo@2w2>>23322<w022",
"zlzvcjTj>><22<222233322<2<,2w>X+@@@@w3<22332,><wrq",
"zzAGvT~,>2222232<<2<22322,=,q=@=>>>=8j2<<032,=%wVw",
"CAbS~^3%><2332<<8jKd<<3332,33>>,<>1<dj%><2<32>=>VT",
"~~^(^2=;<23332,3d2,Nw,<32<,,w332388yKM=,<2<33<<>@3",
"=;<2==dWGc833,,3=++=w<<33,=%0wqjNNbHY3><2223332<=@",
">oo@=2!/Wve28,,2$=>>3<><32>>,NNVPTHRw@><33238832,,",
"1>><<4baae122,<2,113j>,<222<$>SH~~~3@>>320y2323332",
"q323311e1--12>>q8qdVw,<3333<=o@<3<@o>,<32w44323333",
"2233q2;:*&>222>,NCSM>>233382,$o..o+@>,<3<=*>22332,",
"2<2232<=*=2aSr,==<<%%<232232,,,@+$>,,2<3,>>222<2>>",
"cd8<233214rvby21>@@>2<233222233,>23333232222<%,www",
"MVM,<22333211:82,22,223222<<2323333232338<22>>qHHM",
"<2wq<,<2334>;<323233322<<wyjj,><33332<23332,2qw2>>",
"++>w<>>23,333223223323,,3MMwVw<2333q2,<3r2<<2s,@o+",
";=@2<=,232333333323232>23>@@=wq,<3333<<32<,<q3@@=="
};
