/* XPM */
static char *result[] = {
/* columns rows colors chars-per-pixel */
"50 50 223 2 ",
"   c #3E0B0C",
".  c #480E0D",
"X  c #4E100F",
"o  c #4A0D11",
"O  c #4C1313",
"+  c #4A1616",
"@  c #531515",
"#  c #591716",
"$  c #5A1817",
"%  c #5A1519",
"&  c #541B1B",
"*  c #5C1B1B",
"=  c #63161D",
"-  c #641D1C",
";  c #6A1E1E",
":  c #731E1E",
">  c #6B201F",
",  c #70211F",
"<  c #671F20",
"1  c #6D1D21",
"2  c #731D24",
"3  c #572121",
"4  c #5C2222",
"5  c #642323",
"6  c #6D2221",
"7  c #6C2827",
"8  c #6B2828",
"9  c #742424",
"0  c #792626",
"q  c #732827",
"w  c #7B2927",
"e  c #752528",
"r  c #7A2728",
"t  c #752A2A",
"y  c #7C292A",
"u  c #793825",
"i  c #7B322B",
"p  c #793F28",
"a  c #792E30",
"s  c #7B3132",
"d  c #793637",
"f  c #7C4528",
"g  c #7D562A",
"h  c #7E6629",
"j  c #7E7E29",
"k  c #6B424A",
"l  c #7C444C",
"z  c #7B4A51",
"x  c #7A5D6B",
"c  c #812727",
"v  c #832C2C",
"b  c #8A2D2D",
"n  c #88342B",
"m  c #833B2C",
"M  c #97312D",
"N  c #832F30",
"B  c #8B2F31",
"V  c #853232",
"C  c #8B3333",
"Z  c #8B3737",
"A  c #8E3A3A",
"S  c #933434",
"D  c #963737",
"F  c #993837",
"G  c #943A3A",
"H  c #9B3B3B",
"J  c #A13E3E",
"K  c #88492C",
"L  c #8C502D",
"P  c #8A5A28",
"I  c #975E2B",
"U  c #8D4835",
"Y  c #924634",
"T  c #8D5434",
"R  c #955732",
"E  c #A4463A",
"W  c #89662B",
"Q  c #8E6E2F",
"!  c #966A2B",
"~  c #97782D",
"^  c #9C7731",
"/  c #A5792C",
"(  c #8A3F44",
")  c #B33F4A",
"_  c #F13A4C",
"`  c #8A4346",
"'  c #9B4141",
"]  c #914E44",
"[  c #995845",
"{  c #8A5458",
"}  c #A34544",
"|  c #AB4646",
" . c #A35C4B",
".. c #966548",
"X. c #9E6C5A",
"o. c #AA734E",
"O. c #8A5463",
"+. c #8D6575",
"@. c #936A75",
"#. c #A56065",
"$. c #E46D51",
"%. c #F85765",
"&. c #C76374",
"*. c #E66B7A",
"=. c #F5737D",
"-. c #7F8624",
";. c #9B9A1D",
":. c #A09F1B",
">. c #9EA11F",
",. c #A7A51C",
"<. c #B5B11A",
"1. c #878528",
"2. c #9A852B",
"3. c #908F2E",
"4. c #9B942D",
"5. c #999928",
"6. c #999432",
"7. c #AA8C2F",
"8. c #A7992B",
"9. c #A79731",
"0. c #9AA326",
"q. c #9DA429",
"w. c #A9A725",
"e. c #A0A42C",
"r. c #A3A92A",
"t. c #ACAC2A",
"y. c #B5AB29",
"u. c #B3AD2F",
"i. c #B6B627",
"p. c #B4B32A",
"a. c #BDBD2C",
"s. c #A8A635",
"d. c #968D4E",
"f. c #AA8E42",
"g. c #B7925A",
"h. c #A7AD47",
"j. c #A8AE56",
"k. c #B1B451",
"l. c #AF8B63",
"z. c #ACB967",
"x. c #E98358",
"c. c #C6BF49",
"v. c #D6867E",
"b. c #CCA46E",
"n. c #D0A673",
"m. c #D3B37C",
"M. c #B9CA73",
"N. c #C0C159",
"B. c #CACA6E",
"V. c #D7D367",
"C. c #947686",
"Z. c #D56E88",
"A. c #D47A8C",
"S. c #F17584",
"D. c #998292",
"F. c #B4AF93",
"G. c #A59FAC",
"H. c #BA97A3",
"J. c #9CA1B9",
"K. c #A6A6B5",
"L. c #BEA6B1",
"P. c #C98A9E",
"I. c #E88D96",
"U. c #E78D99",
"Y. c #DBBE84",
"T. c #D499A9",
"R. c #D99DB2",
"E. c #EC96A3",
"W. c #CEAEB9",
"Q. c #DAA5B4",
"!. c #E9A9B2",
"~. c #B5CB91",
"^. c #B1C9AD",
"/. c #C7C48A",
"(. c #EDD78D",
"). c #EFEA8B",
"_. c #EDE298",
"`. c #F3EB9C",
"'. c #FBEA9A",
"]. c #FDF89F",
"[. c #CDC9AF",
"{. c #D5D8B2",
"}. c #F7F6A2",
"|. c #FDFBA5",
" X c #FDFCAA",
".X c #FBFCB3",
"XX c #9FB9D6",
"oX c #ABAFC4",
"OX c #B6BACD",
"+X c #A4BCD7",
"@X c #CAAFC4",
"#X c #D0B8C7",
"$X c #BBCFC8",
"%X c #ADC0DC",
"&X c #B5C4DB",
"*X c #B6D6D6",
"=X c #BEE1DF",
"-X c #ABCBE4",
";X c #BAD6EA",
":X c #AAD4F0",
">X c #B1DBFD",
",X c #BDE3F4",
"<X c #B7EBF7",
"1X c #BEE9F6",
"2X c #B5E3FC",
"3X c #BCE5FC",
"4X c #BFEBFE",
"5X c #C3C3D4",
"6X c #DDCDD6",
"7X c #D6D4D5",
"8X c #D6E3CA",
"9X c #F0F6C0",
"0X c #CAD8E7",
"qX c #D4D3E1",
"wX c #C3DDF1",
"eX c #C3E5E9",
"rX c #C8E6F7",
"tX c #C4ECFC",
"yX c #D5ECF2",
"uX c #C3F4FF",
"iX c #CEF0F9",
"pX c #EAF8FF",
"aX c #FAFCFD",
/* pixels */
"q 6 - 5 c 6 9 e 9 0 0 0 9 0 y 0 y 0 0 c 0 0 9 c - $ > - * - v 0 9 0 0 y 0 0 y 0 9 9 ; 9 v - - > 6 9 ",
"q 9 6 5 b 9 , 9 0 w y e 9 e v t y 0 y y 0 , 9 : * 6 9 6 9 5 y 0 > 9 0 0 0 y y r 9 1 - > c * 9 9 9 9 ",
"a e 9 6 b ; - 9 0 y y 0 9 0 w c w w 0 : : : e G q e t 0 0 q v 9 - e 0 y 0 v V y 9 9 ; 9 0 ; 0 0 t t ",
"V N y t B 6 ; 9 e r y y 9 0 0 y t t { P.X.K F.OXC.Y v V N y B 0 9 0 0 0 v G ' s 0 9 9 9 v 7 V i y V ",
"A Z N B b > 9 0 0 0 t 0 t 0 0 9 9 V G.8Xk.,.N.{.7X#.b A C H C - 0 0 y 0 a s y 8 9 9 - ; M e N Z Z A ",
"G n S F > - > 9 e 0 w e e 6 9 0 9 d [.h.>.i.,.t.k...D H Y S ; ; 9 y w y 5 4 3 5 9 9 - - v C y C Z F ",
"G H F 9 * > 9 e r y e 6 , C F F H A 2.0.w.i.p.w.:.2.K 1 > @ - 0 t 0 0 y 9 3 * e w 9 , ; - v F S S F ",
"F t $ * 9 9 9 0 0 0 e 9 n J C v b Y 3.q.t.i.i.w.;.8.1.O @ > e r 0 0 y w 9 9 0 y 0 0 9 9 - # 0 b Z F ",
"& . @ > 9 r r 0 y e , v v - @ O . p 2.7.4.8.~ W I / t.f 9 y r y w 0 e 9 0 9 0 y 9 0 9 0 > - # X @ @ ",
"* $ > 6 0 y r e e , 9 v * @ - - % g ! M S J E 2.8.;.5.m 0 r y r w e 9 9 9 w 0 0 r 0 0 y 9 9 ; * @ # ",
"9 9 9 0 0 c w 0 , ; 9 9 * > > 7 - f 3.2./ 7.w.0.0.0.h t r y y 9 > y C F H H F 0 9 e 9 0 w 0 e > ; ; ",
"y 0 y t y y w e 9 , 0 9 > 6 6 6 6 q g 3.;.e.0.r.e.5.g , r y r 1 e S H S S M H S 9 9 6 0 y y 0 0 0 0 ",
"y 0 9 9 0 0 y e , > , c 6 e 0 0 y y y T 3.e.w.t.0.0.X.O.r 9 ; 9 b b c : - ; 0 B b 6 9 e 0 0 t 0 0 9 ",
"G F v 0 0 0 y w 9 > 9 b 0 N N n V V B C W 0.t.t.0.5.~.wXD.9 - v b 0 @ . O O X ; S v , 9 0 0 y 0 6 0 ",
"e > c B 6 9 0 y w 9 - y b N C Z Z B D r { d.>.>.0.z.W.qX,X+.0 B 0 # O * * - * @ 0 v > , e 0 0 ; 0 B ",
"& O @ e y 9 0 t 0 6 - - b S Z D D D y d H.8X/.B.{.yXE.U.rX&X` c 6 $ ; ; - - ; - 9 v 9 9 0 0 9 9 0 $ ",
"> > * > v ; 9 w e 9 9 - @ 9 b C y = # C.&XtXaXaXpXrX#XE.rXuXoX( ; 6 6 9 > 9 9 6 e B 9 9 9 0 ; 9 > # ",
"8 9 > 9 v 6 0 w w 0 e 6 - @ X O O X x +X5X:XrXaXyX0XeXrX!.!.3XJ.s 9 e 9 9 0 e t c B - - 9 0 9 0 6 > ",
"t 0 0 N b ; e 9 y V v 9 e 9 * - - a +X:XQ.5X3XyX1X0XqX#X_ R.2X-X+.: V y i v V v B v - , 0 w ; 9 t 0 ",
"V N V F y ; e V H } G t w 9 9 r 2 C.>X2XT.Q.4X,XrXrXeX&XA.%X>X:XD.0 V V Z Z Z C F 9 9 9 0 0 9 , b N ",
"Y H ) n * ; v H H Z y t c 0 e w y J.>XtXQ.@X4XrXiXtX4X1X+X-X^.-XK.C Z C A A G H w - , e 9 0 e - 9 S ",
"7 q - % 9 9 w V s y 8 q y 0 y 0 a oXtXuX;X%X3XeX!.rXuX<X>XeXs.^.XXd b F F H S > * > 9 e 0 0 0 9 - * ",
"O O * 6 0 0 8 a t 8 4 9 c y r 0 d T.S.7XW.%X4X3XU.U.rX2X*Xz.j.=X-Xk X * > > @ # > 9 0 c w 0 0 y 0 * ",
"t e e r 9 e 7 3 4 & < t ( ' Z 9 z @XS.*.T.;X2X3X#XE.0X~.e.j.=XuX;Xl X O X @ # > 0 9 9 w 0 y y y t 9 ",
"0 > 6 e 9 e 9 * & * q i Z Z V q d L.I.P.-XtX4X1XwX*Xz.,.s.eXuX;X@.e > - > 9 9 0 0 y Z A t t 0 t w 0 ",
"0 e v c 9 1 e 0 9 0 0 4 8 8 5 7 1 ^ / +.+XU.qXuXeXj.,.,.~.tX6XL.y 2 0 e 9 0 0 0 A } } ' v 0 0 9 9 6 ",
"V D E J S v 0 0 0 9 w & + & & 6 y 9.m O.&X#X0XuXz.t.i.t.*X0X%.P.z 0 y y 0 y 0 A ( J A V t q 0 > ; 9 ",
"F 0 9 9 w S D 9 > 9 y e 4 4 9 e L 9.0 | R.2XrXW.i.a.i.M.tXU.%.Z.z : r y 0 0 y C B C y t 8 9 9 6 9 C ",
"*     . . - C t ; > 9 0 0 y t 2 ^ / < C v.8X7X$.<.i.<.~.tX*.=.&.y 0 y 0 0 r t y v y t 8 5 9 6 9 b v ",
"+ O @ @ @ . , b 9 9 0 9 9 0 r r 9.L 1 @ g.'.].(.x.m.B.$XrX=.*.Z 0 t y 9 9 r q 8 q q 8 4 * ; > v v # ",
"4 - - * - * - v 9 > 9 9 0 e 0 V 9.y 1 y Y.`.].].'.yXtXtXrX!.n.V ; 9 e e 9 y 0 4 4 4 3 3 6 e 0 c ; . ",
"5 - ; > > - ; b 9 ; 9 0 0 y 2 T 7.0 : X._.'.'.).m.$XuXtXrX9X_.U v b v 6 1 9 0 6 & 3 * 6 : ; v 0 # * ",
"6 6 6 9 6 6 6 B c 9 e 0 9 0 2 ! u.2 a Y._.}.'.(.o.O.{.9X.X X_. .M F S c 9 9 9 e 9 > 9 9 - - 0 0 * > ",
"q 6 6 9 q 0 t S 6 ; , 9 0 9 y / 7.t  .'.(.V.).(.Y 2 n.|. X X}...1 2 c B v ; > 0 9 9 0 0 6 > c c > 6 ",
"t 0 t y v v C S - - ; 9 y 9 e ^ ^ N o..XV.,.V.'.[ 2 b.}. X|. X..  O @ 0 v 9 ; > 9 0 0 0 9 9 c c 0 0 ",
"V N V Z Z N F Z ; > e e 9 e 2 R U e ` (.V.,.)._.V 2 m. X X X.Xl.X * @ % b c 6 9 9 c y e , ; 9 n t y ",
"Z V C S V S E < > 9 0 e e e 0 V u 9 ; t 7.a.g.] 9 t b.`.}.`._.l.= 6 ; - y b 9 9 9 0 0 0 9 ; - c S v ",
"Z V Z A H | w * > 9 0 y y 9 9 6 0 C F c R a.K 2 0 e t T c.f.s 7 9 9 9 6 v C - ; 9 e 9 0 9 ; - - B H ",
"Y ) } | | 0 # - > 9 0 y y 0 > 0 S e 2 S R a.! r 0 9 ; u u.I 1 0 t y y v S M * > 9 9 9 r w 9 9 > # v ",
"< 1 q t - * V G S V y 0 0 > > v % o @ % Y a.~ 0 w 9 = P u.T y V C Z Z C J w > e 9 9 0 0 y 0 9 9 - # ",
"5 X . @ > t ' } ' A a q t ; 9 9 % 1 > - i p.7.e 0 9 ; ~ 9.Y C B Z G G } w - > 9 0 0 0 t y 0 0 0 9 > ",
"0 , > 9 9 t Z V i t 5 9 r 9 9 9 1 9 q e M 9.y.w 0 0 0 7.2.1 F Y E J J 0 $ > > e y c w 0 0 e 0 y 0 0 ",
"y 0 0 y t 9 8 y q 5 4 9 9 ; ; c y y v Z b 2.p.m 0 y m y.W X $ 9 y 0 @ X ; , 9 c e V t 6 0 9 y y t y ",
"t 0 0 w w e 4 5 3 + 5 r 9 9 6 u Y U U U = ! a.L 2 0 W p.f = O .   o @ * > ; 9 0 6 4 4 7 0 0 y w 9 9 ",
"0 6 e 0 0 0 9 * & < q N G y q ~ 5.9.4.6.g W a.Q 2 r 2.u.f ; 1 @ @ * ; 9 9 9 9 0 9 ; 9 9 0 9 2 e ; ; ",
"C v 0 9 e 0 y e q 0 y Z A i 6 i Q 9.r.e.e.3.;.~ r p 3.3.W q 0 6 6 e 0 0 y 0 9 0 9 0 9 9 9 - > c b v ",
"C M C > 9 e 9 r 0 y q 8 8 5 t 0 1 p ~ 4.q.q.6.Q i p -.1.j g t e 0 y y e 0 9 0 0 0 9 9 9 > ; v H D b ",
"6 9 b v 9 6 9 r r r r 5 4 6 r 9 0 e y K ~ 4.e.4.p u j 1.1.1.h w r w y 0 e 9 e y c 0 9 9 9 y b 0 ; ; ",
"& O > v 9 > > 0 0 9 e c 0 0 0 0 e 9 w 0 0 V f u 0 S L L R L K t 0 0 0 c e 6 6 y r 0 9 6 0 b ; @ O @ ",
"6 - @ 0 0 - 7 9 0 9 0 w t 0 y y t 0 y 0 9 0 = 9 c - % % = c c 1 9 y y y y 9 9 y 9 9 > 6 v 0 * % - ; "
};
