/* XPM */
static char *_7adb8f0a1cc43c4c1ffb9e1ddbd049cxYSF3w1X81rCgXOE[] = {
/* columns rows colors chars-per-pixel */
"50 50 236 2 ",
"   c #4D0B0E",
".  c #4D1313",
"X  c #531615",
"o  c #591515",
"O  c #561817",
"+  c #591917",
"@  c #5C1B1A",
"#  c #631617",
"$  c #641D1D",
"%  c #6A1E1E",
"&  c #711C1F",
"*  c #7B3B03",
"=  c #66201F",
"-  c #6A201F",
";  c #5D1F20",
":  c #6D1F20",
">  c #761F22",
",  c #5D2423",
"<  c #642222",
"1  c #6D2222",
"2  c #6D2929",
"3  c #742425",
"4  c #792627",
"5  c #762926",
"6  c #792827",
"7  c #772728",
"8  c #7A2728",
"9  c #752A2A",
"0  c #7B2929",
"q  c #77332B",
"w  c #7B3833",
"e  c #7A4226",
"r  c #7D4733",
"t  c #795334",
"y  c #7A4D45",
"u  c #853B01",
"i  c #822C2C",
"p  c #822E2E",
"a  c #852E2E",
"s  c #882F2F",
"d  c #842E30",
"f  c #892F30",
"g  c #853232",
"h  c #8C3333",
"j  c #893B38",
"k  c #923635",
"l  c #943837",
"z  c #943A3A",
"x  c #9A3C3B",
"c  c #8C470E",
"v  c #97460A",
"b  c #99550B",
"n  c #8A4917",
"m  c #99581A",
"M  c #A5560D",
"N  c #A45D16",
"B  c #BA720C",
"V  c #A76619",
"C  c #B2661A",
"Z  c #B17014",
"A  c #B9761B",
"S  c #864938",
"D  c #944E3D",
"F  c #86553A",
"G  c #976D2B",
"H  c #9C732A",
"J  c #8C6B35",
"K  c #966A3A",
"L  c #AB6B2B",
"P  c #AD7529",
"I  c #B77927",
"U  c #AC7436",
"Y  c #B67E34",
"T  c #8B4F44",
"R  c #974744",
"E  c #925E4A",
"W  c #9A584D",
"Q  c #8F644D",
"!  c #957445",
"~  c #976756",
"^  c #967857",
"/  c #A3724D",
"(  c #B17D42",
")  c #A36A5A",
"_  c #A1755D",
"`  c #9C7261",
"'  c #A26E64",
"]  c #A77862",
"[  c #BE801B",
"{  c #B88536",
"}  c #B58A35",
"|  c #CA8B16",
" . c #C38929",
".. c #CB952D",
"X. c #C28933",
"o. c #C48D3C",
"O. c #C5933B",
"+. c #CB9738",
"@. c #CEA23D",
"#. c #D7A73A",
"$. c #998143",
"%. c #9E8A57",
"&. c #A68849",
"*. c #B38A49",
"=. c #BB9549",
"-. c #A38A54",
";. c #BD9855",
":. c #BAA25C",
">. c #AA866A",
",. c #B49B68",
"<. c #B38871",
"1. c #B59A7A",
"2. c #B7A367",
"3. c #BBAA79",
"4. c #BFB27F",
"5. c #C18942",
"6. c #C79947",
"7. c #CC9D4B",
"8. c #D09943",
"9. c #C49D53",
"0. c #C89955",
"q. c #CAA349",
"w. c #CFA44D",
"e. c #D7AB47",
"r. c #DAB24B",
"t. c #CBA659",
"y. c #CEAA5C",
"u. c #D5AC55",
"i. c #D4AA58",
"p. c #D7B357",
"a. c #DBB45B",
"s. c #DDBA5E",
"d. c #E1B848",
"f. c #E2BC56",
"g. c #C8A967",
"h. c #D3AD64",
"j. c #CEB567",
"k. c #D4B564",
"l. c #DAB664",
"z. c #DDBB64",
"x. c #D5B56D",
"c. c #D8B66D",
"v. c #DCBB6C",
"b. c #CBAE73",
"n. c #D2AF73",
"m. c #C9B776",
"M. c #C4B37B",
"N. c #CBB57C",
"B. c #DABC75",
"V. c #D5BA78",
"C. c #E2BE67",
"Z. c #E1BF73",
"A. c #E5C35B",
"S. c #DEC26C",
"D. c #DEC176",
"F. c #DDC37B",
"G. c #E2C36A",
"H. c #E4C568",
"J. c #E9CC6D",
"K. c #E1C374",
"L. c #E5CA74",
"P. c #E1C67D",
"I. c #E7CD79",
"U. c #E7D379",
"Y. c #ECD37B",
"T. c #BC9687",
"R. c #B5A585",
"E. c #C6AA88",
"W. c #C5B483",
"Q. c #CDBB84",
"!. c #C7B88A",
"~. c #D8BC84",
"^. c #C2AD91",
"/. c #C9BC93",
"(. c #D1B894",
"). c #D6BCA6",
"_. c #CFC487",
"`. c #D5C685",
"'. c #DCC381",
"]. c #D4C48C",
"[. c #DCC78B",
"{. c #DCCA8C",
"}. c #DCD28E",
"|. c #CAC19D",
" X c #D5C492",
".X c #D7C897",
"XX c #DBCB95",
"oX c #DCCD9B",
"OX c #DED294",
"+X c #DBD298",
"@X c #E0C682",
"#X c #E4CB83",
"$X c #E4CC8B",
"%X c #EAD789",
"&X c #E2CE92",
"*X c #E5D395",
"=X c #E9D695",
"-X c #ECDA94",
";X c #E3D49B",
":X c #E6DB9C",
">X c #ECDD9B",
",X c #EDE19C",
"<X c #F2E19E",
"1X c #D8CCA4",
"2X c #DCD3A2",
"3X c #D7D2AD",
"4X c #DAD3AD",
"5X c #DFDBAB",
"6X c #E4D6A3",
"7X c #E5DCA4",
"8X c #EBDCA3",
"9X c #E4DBAC",
"0X c #E8D9A9",
"qX c #E4DCB4",
"wX c #E6DDB6",
"eX c #DFE1AB",
"rX c #E4E3A7",
"tX c #EDE1A6",
"yX c #EAE2AC",
"uX c #F3E7A6",
"iX c #E5E2B3",
"pX c #EBE4B3",
"aX c #EDEAB3",
"sX c #ECE4BA",
"dX c #EDECBB",
"fX c #F3ECB4",
"gX c #F3ECBC",
"hX c #F9F4BD",
"jX c #DEDEC5",
"kX c #E4DCC0",
"lX c #E9E6C6",
"zX c #EFEAC1",
"xX c #F2EDC5",
"cX c #F6F4C8",
"vX c #F7F7D7",
"bX c #FDFFE1",
/* pixels */
"3 1 < 1 0 3 3 3 3 4 0 4 3 8 0 0 0 8 0 0 0 3 3 4 % $ = = $ 1 0 4 3 4 0 8 8 0 0 0 3 3 : 3 8 = $ - 3 3 ",
"9 3 1 1 0 3 > 3 4 0 8 4 3 3 0 0 0 0 0 0 8 3 3 3 % % 3 1 1 1 0 3 3 3 8 8 4 0 0 8 3 : $ 3 5 = - 5 5 5 ",
"9 9 3 7 0 3 % 3 3 0 0 4 3 4 8 0 0 0 4 8 4 3 3 4 3 9 0 9 0 5 i 4 3 3 4 8 0 d d 0 3 > : 3 8 > 5 6 4 0 ",
"g g 9 0 i 3 - 3 4 0 8 0 8 8 0 8 4 4 0 0 4 1 3 0 0 0 d g i i a 4 > 9 8 8 i j j d 3 3 3 4 i 3 q i i i ",
"j h a a i 3 1 5 4 8 0 0 4 4 3 4 3 4 3 8 8 3 : 8 a h j k h h a 1 7 9 0 9 2 w q 2 3 3 % - i i i g h h ",
"z h k h 3 $ % 5 4 4 8 3 3 4 0 4 8 8 3 3 4 5 1 : 0 h z l z g 3 1 > 8 8 8 2 , : 1 5 1 - % 0 a s h z z ",
"z l h 5 % % 3 5 8 8 3 3 0 g k k k f 3 3 5 > : & o # 1 2 1 $ % 3 8 8 9 8 : : : 3 3 3 3 % - i h h h z ",
"d 7 % % - 3 3 4 0 8 3 3 i k s i d h a 3 % S <.1.>.~ w X o - 3 8 8 8 8 9 7 1 3 4 0 3 3 1 = = 3 i g h ",
"@ O @ % 3 3 8 8 8 3 3 i 0 1 @ @ @ % i 3 ~ 2X8XuXuXfXuX(.~ > > 0 8 4 3 3 3 4 4 4 8 3 4 3 % $ # @ @ $ ",
"@ @ % 1 4 0 8 4 3 3 5 4 % @ @ $ $ $ % ] dXpX;X6X*XG.%XcXgXE.T > 4 3 4 i i i i 4 4 4 8 4 3 3 $ @ O @ ",
"1 3 3 7 8 0 8 8 5 - 3 3 $ % : : - # _ >X>XpX=Xv.v.s.L.-X<XcXxX' & 4 h k k k k i 6 3 3 8 0 8 3 1 % - ",
"0 4 8 8 0 0 0 4 3 - > 3 1 1 3 3 & ~ iXP.H.$X$X*X$XP.8.K.<X=XgXcXT.h k k f k k f 0 3 3 8 8 8 4 4 3 3 ",
"0 0 3 4 4 8 0 3 > - > 6 3 3 8 3 _ 7XpXF.e.e.C.Z.Z.&XB.=X8XC.J.gXbX).j % 1 1 4 a a 3 3 3 0 4 4 0 6 3 ",
"h h i 8 4 8 0 8 3 - 3 i i q i ) 7X;XB.x.w. .+.+.i.8.C C a.=XJ.J.xXbXkXy   X + 1 a i 3 3 3 4 4 4 3 0 ",
"0 3 0 i 3 3 0 0 6 1 - 0 s i ) 9X0XB.B o.w.8.i.c.*X~.5.0.c.Z.I.f.Y.gXvXxXQ   @ @ 3 i 3 3 3 i 3 3 5 0 ",
"@ @ @ 3 0 3 4 4 4 3 - 1 4 W XX;X{.v.y.].i.i.5.X.C.gX8XC.@XC.H.C.#.Y.fXuXgX' # % 3 0 3 3 3 3 3 3 3 % ",
"$ $ $ 1 3 3 3 0 6 5 3 @ w ].9X+Xk.[.lX4XqX2X4XqX&Xv.0Xp...v.$X#Xa.#.e.#.#XcX) # i a 3 % 3 3 > 3 % @ ",
"1 3 1 3 0 3 3 0 4 0 3 w Q.OX1XQ.O.XXqXoXoXoXiXlX6Xi.K.i.Z.&X$XC.f.C.e.o.| %XzXW 3 s % > 3 4 3 3 1 - ",
"9 9 0 i i 3 3 0 i a j W.%XXX`.q.I N.m.wX(.X.5.~.~.5.~.6XZ.u.u.C.@X#XsX0Xf.f.fXxXW > 3 : 3 8 3 3 0 9 ",
"h h h h 0 1 0 h l R !.*X`.2X;Xu.t.N.g.3XjX~.I N V V ..0Xx.Z X.Z.C.i.#X@Xf.%X<XvXwXj % 7 3 3 3 5 i a ",
"z h l i 1 1 0 h z E.eX Xj.N.{.+X.X|.N.].lX.XN.g.I n.[.c.0X).u.C.w. .u.l.B 8.e.%XvX1X9 3 6 6 3 & 3 0 ",
"2 3 1 1 3 5 0 j ^.9XXX Xg.[ =.].3X|./..X4Xb.g.~.V.'.sXl.t.8X0XZ.v.y.l.c.u.B.r.Y.C.fX(.i 3 0 3 3 : % ",
"@ @ $ 1 3 3 9 R.iX{.].XX9.{ 3.W.;./.R.,.M.(.]..Xt.q.t.A +.l.Z.v.#XsX@X@XF.6Xa.r.f.G.hX~.i 8 0 8 5 < ",
"1 1 1 9 0 1 ` eX_.{.qXlX9.;.W.P m ;.2.K G =.n.[.t.8.I I O.P.u.#.a.v.....@.6Xs.e.P.I.%XcX) & 0 0 4 5 ",
"9 1 3 4 3 9 !.+X_.+XOXD.V.;.3.H c c m * m Y h.2X9X&X'.i.o.t.#X@Xl.A ..B k.gX=Xr.s.J.Y.xX) > 0 4 4 4 ",
"0 0 i i > D _.M.m.j.+.{ p.Q.|.3.$.n n n G Z 9.q.{.>X8XqX$XXXoXl.0Xe.a.B.4XvXa.#.s.A.,XcXW 3 6 3 3 3 ",
"g h l l i / F.3.2.g.m._.j.F.OX7Xn.} V m ,.Y P :.V.*XqXsX#XF.9X*X@XC y.xXsX'.X.#.G.J.>XqXS 3 3 1 : 3 ",
"h 4 3 5 > F 4.4.4.W._.+Xy.b N } [ O.6.*.&.P P ;.g.N.k.F.F.p.~.&Xn.M X.G.w.A  . .S.tXaXE.2 3 3 3 3 a ",
"@ X . . X % / m.R._.3.|.].m v =.U m 9.M.V b P q.oXXXq.e.[.qXg.A o.l.sX;X .I z...a.dXdXQ $ 1 3 4 0 i ",
". . . X X X 1 &.F.R.R.Q.4X'.y..XL V  .6.} *.].{.V.o.O.'.lX$Xo.A r.K.8XxX8Xr.L.,X:XcX1., < - 1 0 8 % ",
"@ @ $ @ @ @ % 0 ! :.3._.2XoX+X9.Y ].I =.V.O.{._.} u V v.0X$X7.8.f.+.e.U.J.-X*XaXdX1., ; 1 3 4 8 % X ",
"< 1 % 1 - % 3 0 3 w J -._.2XXXQ.B.sXU ( +XB 6.9X9.v { oX=XwXh.c.*XJ.J.J.J.dXdXrX^ , @ 1 - & 4 4 $ + ",
"1 1 1 1 1 1 7 a 0 > 5 e J 2._.2XF.D.t.} v.w.N L C 5.N.V.y.+Xp.@.S.F.U.>X-XrX XT # 1 3 : : % 3 3 % % ",
"3 1 3 7 7 0 0 h 3 1 > 3 q t %.].eX}.].j.F.yXU v A &XP.Y O.e.:X:Xs.F.*X+X:X!.w % 8 3 4 4 3 3 8 4 1 1 ",
"9 9 9 0 i d h h 1 $ % 5 5 2 t %.4._.+XeXqX7Xy.I i.e.| M +.%X:XxXdXiXrXeX>.5 % 3 3 4 0 3 4 3 i i 4 5 ",
"g d g h g g k a 1 1 3 3 5 3 5 r ! &.:.F.7X,XyX$X<X=Xe.#.A.%XzXrXpXaXiX>.4 4 3 3 4 0 0 3 & % & i i 0 ",
"g g j k h z l 7 % 3 4 6 3 4 0 3 q J ! =.j.*XrX0XzX8XG.f.d.%XcXaXaX5XQ # 0 a 3 3 5 4 4 4 3 % - 0 h a ",
"j l z z x z 9 : - 3 4 0 0 3 3 3 8 g Q -.-.q.*X5XgXyX-XyX<XY.,X,X.XT % 7 a a 1 - 3 4 3 4 3 % $ 3 i k ",
"l z x x x 0 1 1 3 5 0 0 6 3 3 4 i 5 5 F %.$.} 3XwXtXyXrXtXU.U.g.S 5 0 d h a % 1 3 3 5 4 4 5 > - % 5 ",
"1 1 3 9 1 1 g j h g 9 0 3 > 3 5 % + + = S ! G H ~.>X:X{.}.m./ j i h j l k 0 > 1 3 4 4 4 4 4 5 1 $ $ ",
"$ + + @ : 7 z R z j 9 9 0 3 3 3 $ $ % 1 3 5 t J :.F.m.2.^ k a h z z x l 0 % > 3 4 3 8 8 8 0 4 3 3 : ",
"3 : : 1 1 0 g j w 9 2 3 7 1 3 3 3 1 5 9 0 3 % w E J t 5 $ % h k x x h 0 1 % 1 3 8 i 0 8 8 8 8 0 4 4 ",
"0 7 8 8 7 3 2 9 2 < < 3 3 1 : 4 0 i g g i 3 5 4 3 3 3 3 % + $ 3 5 3 % X $ 1 3 0 8 9 9 9 4 4 0 8 4 4 ",
"0 3 8 0 9 3 < < , @ < 3 3 3 1 3 i h h 0 - - 3 4 4 4 0 3 - $ + . . X X @ % 1 3 3 3 < < 1 3 4 8 8 3 3 ",
"5 3 3 8 8 8 3 < ; : 3 g h 0 3 : - 3 1 1 % > 3 4 4 4 4 5 3 % % + X $ % 1 3 3 3 4 3 - % 3 3 3 3 3 > 1 ",
"g i 0 3 3 8 7 3 1 9 q g g q 3 1 % $ $ % 3 3 4 0 4 4 3 4 4 4 4 1 1 3 4 4 8 4 3 8 3 3 4 5 3 - 3 i a i ",
"f s g 3 : 4 4 4 9 0 3 2 2 2 9 8 3 3 3 3 3 5 3 4 4 3 3 4 4 4 3 4 4 0 0 4 4 4 3 8 4 3 5 3 > - 0 h h a ",
"3 3 i i 7 : 3 8 9 8 7 1 < 3 8 7 4 4 4 4 4 3 3 4 3 i i i i 4 & 3 4 6 0 0 4 3 4 0 0 4 3 3 3 8 i 4 : % ",
"@ + : 0 3 % 1 3 4 3 8 8 4 4 4 4 4 3 4 8 8 3 3 3 4 a a i i i 5 3 4 8 0 0 3 3 3 8 8 3 3 1 4 i 3 + + + ",
"% @ @ 3 3 % 3 3 4 3 8 0 8 4 0 0 0 6 8 4 8 3 1 3 0 1 $ $ & i 0 3 3 8 0 0 0 3 3 4 4 3 3 3 8 4 $ o $ $ "
};
