/* XPM */
static char *_ae47d0932d84d14ca5074165dedc97dnLt9lOOqX9e9cQ7D[] = {
/* columns rows colors chars-per-pixel */
"50 50 71 1 ",
"  c #060A0E",
". c #0A0E13",
"X c #0C1115",
"o c #0E151B",
"O c #0F181E",
"+ c #10161C",
"@ c #12191E",
"# c #151D24",
"$ c #181F26",
"% c #171F29",
"& c #162027",
"* c #1A2127",
"= c #172129",
"- c #1A252D",
"; c #1D282F",
": c #1C2730",
"> c #1E2A33",
", c #1F2D39",
"< c #1F303A",
"1 c #202C35",
"2 c #222C35",
"3 c #212C36",
"4 c #212D37",
"5 c #242D35",
"6 c #242E37",
"7 c #202C38",
"8 c #212F3A",
"9 c #232E3B",
"0 c #242F39",
"q c #222F3D",
"w c #253037",
"e c #293137",
"r c #213039",
"t c #233038",
"y c #22323B",
"u c #243139",
"i c #21303C",
"p c #21323C",
"a c #26313C",
"s c #24333D",
"d c #27323C",
"f c #22343E",
"g c #25343D",
"h c #26353F",
"j c #29343D",
"k c #28343F",
"l c #233540",
"z c #243541",
"x c #263440",
"c c #273440",
"v c #243641",
"b c #253542",
"n c #273643",
"m c #283540",
"M c #293642",
"N c #273842",
"B c #273845",
"V c #293842",
"C c #293844",
"Z c #2C3B45",
"A c #2B3C46",
"S c #2C3C47",
"D c #273948",
"F c #293948",
"G c #293C4A",
"H c #2B3C4A",
"J c #2E3C49",
"K c #2F3E4C",
"L c #303C45",
"P c #303F4D",
"I c #32414D",
/* pixels */
">Irhsrs,8rf:-Mr-,Z$ZPFCJ>100ssqmhf<81#sJChh*CIFGI<",
"8C8>1>;>;>,;NN>1hh,M0ass1ZZ05018,,rpp-s81881r1>>>;",
">nr>;>11;>1-r,;Hu1>sa5q5-001111:>>>,8-rr8,,>p81>>,",
":p,:>>;>>;>->,1r>11k5111:98151:>:,;>1*rr,>>>h>>->,",
">1,->>>>>:=-:q>181;q5115:s11:11>>,>::=l,,;,>C,;<><",
">r,>;88>>->81s101;105$;1;d111dp>,>-,:-n,>>>*-,-r;,",
"881>>08>>:,>:pqq;;1u1-;;-s>>818>,>:,::l<>>:#o>rr>,",
"81>>1>r18>8:8b1,;;16;;1$:s;>>>88,>,:::n,>>:=un8>8p",
"h8111>11q8:;3q::;;:1;*;;:C3>:11>,,>-::,,,>--,;;:>;",
"s11>:1:>11:-18:>11:511:;;m55r1;><:-:>>,>::;;,;;-;-",
"h81;:;->1:::q83s3>10:1:;%C>1;>1;>:-:,,,>--::<;;--;",
"-u1>;;;:::::-q1::-#111-#+0p,;-;;=::>-=<--->&>>--1;",
"X*--;;$*#%%# #%####+%*## o,>---*-:--# >:=--#$##=*o",
"*118q>811>1:+>-118q11:>>$-s86hshpp8s:#nlfffFs18:-1",
";>1ss8q0q>1q%;#%%:>:>:;1-1r181r1,88,:>l,,qlp888811",
"1kuqsss0>;>:#1#%:>q>--;1*>rwMfhrqq,>:>l:,lnlu1>M8-",
"8sqbsq>>11,*#>=>>>1q,;;1->sssqp8>q>>>>p>sMss08085-",
"-;8p8>>>81>%#1->:,,qr81r>>M88q8>:>>>::08s8001ss31;",
"+#--::;*-;>#o->>8sn8rr88-;s:1l8>p1:$%-810008dm8551",
"+0hZhhMsh8u>@81r>n18rr8q->uuMspfs1;->;1:1dd0mm001;",
">FDDs01suu8;#8>>>81urr81*;u0s80q::1:1*5;>6dj01-111",
":KDlk00ur81-#1::,>80u818-;nss11>1-111$;11156q5:31*",
"-M88e6111>:-%1>0811101:1--m011>1--q11%6d5-515511--",
"-M111;5s;:->*us011088100-#su>11%#1851$d51-*65111>;",
"o>*#%*1*$@$*X*;:--#;1>-#X.%-*$$X#;*>#.;;$%+$;$;%:#",
"*FMddMjjjhwh$>1>1:#0sh80#;s8818>0u8,1@1d01deaa00s1",
"8Fhs11uu5wwjrV1u0q:qh>,r-qFsw>18>1888118sZaaaa0ds0",
"8Cr1;dj65w85;u8h88*1018h:>ns1;11111>1>u0Cje1e55501",
"6Z55jju1;61;;01q1>#>uuru;881;->1>--:>-s8s5>01;;;1:",
"5j55ee6661;1:88q:8#;168>$;1;;;88>:::>*00m5ZL56;561",
"wde5ejeuMd81>urr>>$>11-;*>81*$118>>>8#;038>*1:100%",
"6j5ejjejduu8>Mr8>-%>>>;;%>>>#@>1>>811$CC0m1X-5155@",
"1e5ejjeqee01>l,,::&;>>;-&;1;>><>>>,<,>Kf8C6@-;6655",
"1jejed55511>:q,>:-@-;;-;@>,>>>>;;-;>>,npnZu@%151ee",
"1jee1;;;-;1>-,,8>;#*;;;-$18>>;>;=:->r>l<r18@-16e6;",
"1jee55;;$115;>88:;#>r>;;&rt>;;>===:-,,<:C>>#5eww66",
"eLjjj5*;1>88-8,>,;#1::-:#rt,>;;----==O:,01>#wejj5*",
"$jdje116>10%.-:::#X&=--%X@,>>>>>==-;= O:;;;**;;16+",
"$dedeqjd0sr8+108fMnnl<,,#&Vt1rhrnllll&<<8dkwjjjee$",
"ejeed500168q1s88<nn<,>=-&rr,,>,r,f,,,;l>1r>1hw1gj*",
"5jjqdjs818>1-t,1fDnl>:=:--8qqp<p,,,,8-8888pnsmM18;",
"5jmmMMd11>;$@n,rn,l,>>-:-=r,,<lp,<<Dq-0p>sfs00>1u;",
"6MmbCMs811*+on,fb,r1>>:>%>n,,<,,<lpC>-p,>s8u8>80k1",
"#5:131:-;$#XXr,8Crr8,,>>%,n,p,1,ll>,::,>>18r181s81",
":M5qnbq18>1:@8>,0p>>0:-1*1s>,,8rll,,:=p:::,381qsq1",
"19qmnnnnnnMb&1>:181u1%1m-,s,88,fl,,,--8:::%->>18r:",
"189b,p,:>,p8*8,;:18s>0M8:8s8rp88<>>::-8:>:::>>88,*",
"sssqn8::;>>>*81>>16ssp0::8nqu808:>>>:;11q-::>1618-",
">8r8>;>:::::&p8>11q8111k>sCu0u0>::--->l,>:>>:,,qp*",
".;>:=&&#*>-@X&##+O#+$;*#@*011>;;-;;;=O=::=###:=--X"
};
